{"title":"The Missouri Breaks 1976 DVD9rip English Klam","uid":6715541,"size":1892673562,"categoryP":"video","categoryS":"movies","magnet":"?xt=urn:btih:df788b98743ea5500a886859f84b5ac2e789d7c3&amp;dn=The+Missouri+Breaks+1976+DVD9rip+English+Klam&amp;tr=udp%3A%2F%2Ftracker.openbittorrent.com%3A80&amp;tr=udp%3A%2F%2Fopen.demonii.com%3A1337&amp;tr=udp%3A%2F%2Ftracker.coppersurfer.tk%3A6969&amp;tr=udp%3A%2F%2Fexodus.desync.com%3A6969","seeders":0,"leechers":0,"uploader":"Klambake","files":-1,"time":1317554177,"description":"With: Marlon Brando, Jack Nicholson en Randy Quaid\n\nTom Logan is een veedief. Om een alibi te hebben koopt hij een ranch vlakbij die van David Braxton. Tom en Braxton's dochter Jane beginnen al snel een liefdesrelatie. Maar Braxton heeft net Lee Clayton ingehuurd, een beroemde moordenaar, om van de veedieven af te komen.\n\nTom Logan is a horse thief. Rancher David Braxton has horses, and a daughter, worth stealing. But Braxton has just hired Lee Clayton...\n\n------------------ Dutch Friends ------------------\nYou can find my Friends at: http://www.Film-Test.nl \n------ They got my dutch subs ----- and more ------\n\nGeneral:\n\nComplete name                    : The Missouri Breaks\\The Missouri Breaks.avi\nFormat                           : AVI\nFormat/Info                      : Audio Video Interleave\nFile size                        : 1.76 GiB\nDuration                         : 2h 0mn\nOverall bit rate                 : 2090 Kbps\n\nVideo:\n\nFormat                           : MPEG-4 Visual\nFormat profile                   : Simple@L3\nFormat settings, BVOP            : No\nFormat settings, QPel            : No\nFormat settings, GMC             : No warppoints\nFormat settings, Matrix          : Default (H.263)\nCodec ID                         : XVID\nCodec ID/Hint                    : XviD\nDuration                         : 2h 0mn\nBit rate                         : 1 887 Kbps\nWidth                            : 652 pixels\nHeight                           : 352 pixels\nDisplay aspect ratio             : 1.852\nFrame rate                       : 25.000 fps\nColor space                      : YUV\nChroma subsampling               : 4:2:0\nBit depth                        : 8 bits\nScan type                        : Progressive\nBits/(Pixel*Frame)               : 0.329\nStream size                      : 1.59 GiB (90%)\nWriting library                  : XviD 1.1.2 (UTC 2006-11-01)\n\nAudio:\n\nFormat                           : AC-3\nFormat/Info                      : Audio Coding 3\nMode extension                   : CM (complete main)\nCodec ID                         : 2000\nDuration                         : 2h 0mn\nBit rate mode                    : Constant\nBit rate                         : 192 Kbps\nChannel(s)                       : 2 channels\nChannel positions                : Front: L R\nSampling rate                    : 48.0 KHz\nBit depth                        : 16 bits\nStream size                      : 166 MiB (9%)\nAlignment                        : Aligned on interleaves\nInterleave, duration             : 32 ms (0.80 video frame)\nInterleave, preload duration     : 256 ms\n","torrent":{"xt":"urn:btih:df788b98743ea5500a886859f84b5ac2e789d7c3","amp;dn":"The+Missouri+Breaks+1976+DVD9rip+English+Klam","amp;tr":["udp%3A%2F%2Ftracker.openbittorrent.com%3A80","udp%3A%2F%2Fopen.demonii.com%3A1337","udp%3A%2F%2Ftracker.coppersurfer.tk%3A6969","udp%3A%2F%2Fexodus.desync.com%3A6969"],"infoHash":"df788b98743ea5500a886859f84b5ac2e789d7c3","infoHashBuffer":{"type":"Buffer","data":[223,120,139,152,116,62,165,80,10,136,104,89,248,75,90,194,231,137,215,195]},"announce":[],"urlList":[]}}